<svg xmlns="http://www.w3.org/2000/svg" viewBox="0 0 1024 1024"><defs><style>.cls-1{fill:#ff001b;}.cls-2{fill:#0f1e68;}</style></defs><title>logo-autokup71</title><g id="Слой_2" data-name="Слой 2"><path class="cls-1" d="M838.83,453.86c-2.26-16.94-36.12-42.9-36.12-42.9-15.91-27-41.78-39.51-41.78-39.51s42.9,3.38,39.52-14.68-31.61-21.45-42.9-21.45-12.42,2.26-13,23.14c-39.51-66.61-67.73-98.22-73.38-99.35s-14.64-5.62-159.18-9v0l-.56,0-.57,0v0c-144.54,3.38-153.55,7.88-159.18,9s-33.87,32.74-73.38,99.35c-.57-20.88-1.7-23.14-13-23.14s-39.51,3.39-42.9,21.45,39.52,14.68,39.52,14.68S236.07,383.92,220.17,411c0,0-33.87,26-36.13,42.9S184,534,184,534l11.29-70s2.26,38.38,35,38.38h99.34S341,499,336.45,523.85l37.25-46.28s6.78-11.29,50.81-13.55,86.93-3.39,86.93-3.39,42.9,1.13,86.92,3.39,50.81,13.55,50.81,13.55l37.25,46.28c-4.51-24.83,6.78-21.45,6.78-21.45h99.35c32.73,0,35-38.38,35-38.38l11.29,70S841.09,470.79,838.83,453.86ZM327.42,487.73l-90.32,1.13S221.29,490,215.65,478.7s-2.26-42.9-2.26-42.9L226.94,429,350,466.28Zm184-131H300.32l45.16-79s6.77-6.77,37.25-9c28.58-2.12,117.66-3.24,128.71-3.37,11,.13,100.12,1.25,128.7,3.37,30.48,2.26,37.25,9,37.25,9l45.16,79ZM807.22,478.7c-5.64,11.29-21.45,10.16-21.45,10.16l-90.32-1.13-22.57-21.45,123-37.26,13.55,6.78S812.87,467.41,807.22,478.7Z"/><path class="cls-2" d="M639.25,482.08s-4.31-6.77-16.69-8.46c-35.53-2.26-112-4.52-112-4.52s-76.44,2.26-112,4.52c-12.38,1.69-16.69,8.46-16.69,8.46l-39.84,40.65L389.47,481s5.38-4.51,29.06-4.51c28,0,92.06-1.7,92.06-1.7s64.06,1.7,92.05,1.7c23.69,0,29.07,4.51,29.07,4.51l47.38,41.78Z"/><path class="cls-2" d="M340.4,776.18c11.29-1.13,28.22,5.64,33.87,13.54s3.38,23.71-6.78,26-35-2.26-38.38-20.32S340.4,776.18,340.4,776.18Zm54.1,63.69c22,10.4,30.07-8.32,45.11-35.37s-2.32-34.32-13.88-37.44-31.25-.3-42.79,29.12C376,813.86,372.53,829.46,394.5,839.87Zm45.25,17.59c19.19,10.16,27.09-9,33.87-22.58s20.32-47.42,2.25-51.93-21.39.11-35,24.84C428.46,830.36,420.55,847.3,439.75,857.46Zm32.74,5.64c6.77,12.42,35,6.78,42.9,3.39s5.64-9,1.13-9-9-5.64-4.52-15.81,3.39-36.12-9-37.25-10.16,1.13-21.45,23.71C481.52,828.11,465.71,850.69,472.49,863.1Zm46.28-49.67c4,27.65-8.55,59.27,53.06,47.42,29.36-5.65,7.91-20.32-5.64-23.71s-19.19-5.65-23.71-11.29S517.64,805.53,518.77,813.43ZM976,512c0,256.26-207.74,464-464,464S48,768.26,48,512,255.74,48,512,48,976,255.74,976,512ZM871.61,731.27c-57.84,1.22-175.29,2.33-179.54-8.72-5.65-14.68-47.42-46.29-47.42-46.29,12.42-9,22.58-35,22.58-35s-9,13.54-18.06,18.06-16.94,1.13-26,0-55.32-24.84-65.48-32.74-47.41-26-57.57-26-31.61,5.65-31.61,5.65a35.76,35.76,0,0,0-5.65-19.19v19.19l-13.55,5.64V593.85L446,588.2s4.51,27.1-9.6,36.7c-47.9,32.57-80.16,1.12-65.48-4.52s45.16-58.71,49.67-62.09,23.71-1.13,32.74-2.26S504.1,541.35,512,540.22,632.8,571.83,644.09,573c10.83,1.09,142.15-11.33,287.36-23.31Q933.1,531,933.1,512a421.1,421.1,0,1,0-842.2,0A427.67,427.67,0,0,0,93,554.77c24.57,2,79.3,6.57,101.73,9.16,29.36,3.39,110.64,22.58,137.74,20.32s46.28-9,58.7-14.67,16.94,0,16.94,0-31.32,43.63-47.42,49.67c-9,3.39,16.56,39,59.27,19.76,22.58-10.16,20.17-14.2,36.13-21.45l12.42-3.39S503.53,595,595,654.81s89.19,64.35,97.09,76.77,3.38,36.13-4.52,39.51-22.58,1.13-28.22-3.38S560,693.2,560,693.2l-1.13,10.16s87,64.21,105,74.51c7.91,4.51-4.51,19.19-4.51,19.19s-6.78,15.81-35,14.68-79-53.06-79-53.06-18.06,7.9-12.41,7.9,61,48.54,82.41,49.67-7.9,26-26,23.71-77.89-39.51-77.89-39.51H494.5l-15.8-23.71s-22.58,0-27.1,4.52-6.77-21.45-31.61-19.2-36.13,24.84-36.13,24.84S381.15,790,350,772.22c-7.91-4.51-12.42,3.39-21.45,2.26s-7.91-5.64-29.36-16.93c-16.32-8.59-98.67-10.65-137.11-11.14a421.45,421.45,0,0,0,709.53-15.14Z"/></g></svg>