<?xml version="1.0" standalone="no"?>
<!DOCTYPE svg PUBLIC "-//W3C//DTD SVG 20010904//EN" "http://www.w3.org/TR/2001/REC-SVG-20010904/DTD/svg10.dtd">
<svg xmlns="http://www.w3.org/2000/svg" version="1.0" width="981.000000pt" height="292.000000pt" viewBox="0 0 981.000000 292.000000" preserveAspectRatio="xMidYMid meet">
<metadata>
Created by potrace 1.16, written by Peter Selinger 2001-2019
<meta name="Producer" content="Online-Convert"/></metadata>
<g transform="translate(0.000000,292.000000) scale(0.100000,-0.100000)" fill="#000000" stroke="none">
<path d="M3929 2894 c-365 -30 -704 -84 -1389 -219 -261 -52 -542 -105 -625 -119 -328 -55 -834 -103 -1320 -126 -186 -9 -224 -13 -245 -29 -31 -22 -77 -135 -175 -426 -134 -398 -188 -662 -166 -804 14 -92 76 -223 153 -326 100 -134 364 -375 442 -405 15 -5 78 -10 140 -10 l113 0 28 -42 c100 -151 287 -286 480 -344 82 -25 105 -28 250 -28 181 -1 235 10 371 74 145 67 261 160 357 288 l39 52 2213 0 2213 0 46 -64 c54 -76 163 -178 240 -224 86 -53 203 -99 295 -118 111 -22 294 -15 399 15 189 55 373 186 481 344 l32 47 685 0 c737 0 734 0 767 52 28 43 42 140 42 298 0 228 -28 337 -120 458 -82 109 -250 236 -482 366 -413 230 -1092 458 -1613 542 -74 12 -125 27 -172 51 -324 160 -957 410 -1464 578 -201 66 -290 83 -554 105 -390 32 -1161 40 -1461 14z m1021 -204 c506 -20 694 -42 891 -106 176 -56 558 -194 774 -279 189 -74 497 -204 508 -215 15 -13 -293 -55 -540 -73 l-53 -4 6 38 c8 50 -11 96 -47 115 -64 33 -344 124 -381 124 -58 0 -91 -37 -107 -120 -7 -36 -17 -87 -23 -114 l-10 -49 -122 7 c-329 18 -677 49 -1066 96 -318 38 -612 78 -618 84 -2 3 60 118 139 255 l143 251 131 0 c71 0 240 -5 375 -10z m-762 -8 c-1 -5 -61 -111 -132 -235 -112 -196 -133 -226 -150 -222 -26 6 -935 134 -1241 175 -126 17 -231 32 -232 34 -3 3 548 110 726 141 417 72 1041 137 1029 107z m-2425 -1098 c233 -52 419 -217 501 -442 80 -224 42 -460 -107 -657 -81 -107 -196 -187 -332 -232 -70 -23 -96 -27 -210 -27 -114 0 -140 4 -210 27 -187 62 -327 185 -411 362 -48 101 -67 185 -67 295 0 440 409 770 836 674z m5967 -65 c230 -63 405 -243 466 -479 22 -85 22 -234 -1 -320 -64 -242 -264 -435 -506 -486 -89 -19 -236 -14 -319 11 -297 90 -494 367 -477 670 11 175 73 313 197 436 83 82 191 145 300 173 85 23 251 20 340 -5z"/>
<path d="M1500 1334 c-119 -32 -221 -117 -278 -233 -36 -74 -37 -77 -37 -191 0 -114 1 -117 37 -191 58 -118 159 -201 283 -233 203 -54 408 41 502 232 37 75 38 78 38 191 0 110 -2 120 -32 184 -93 196 -306 297 -513 241z"/>
<path d="M7419 1302 c-116 -39 -219 -132 -268 -242 -93 -211 -2 -465 203 -565 39 -20 99 -40 133 -46 166 -29 357 62 445 212 69 118 77 280 21 402 -44 93 -118 169 -211 215 -68 33 -83 37 -171 39 -72 2 -110 -1 -152 -15z"/>
</g>
</svg>
