<?xml version="1.0" standalone="no"?>
<!DOCTYPE svg PUBLIC "-//W3C//DTD SVG 20010904//EN" "http://www.w3.org/TR/2001/REC-SVG-20010904/DTD/svg10.dtd">
<svg xmlns="http://www.w3.org/2000/svg" version="1.0" width="850.000000pt" height="850.000000pt" viewBox="0 0 850.000000 850.000000" preserveAspectRatio="xMidYMid meet">
<metadata>
Created by potrace 1.16, written by Peter Selinger 2001-2019
<meta name="Producer" content="Online-Convert"/></metadata>
<g transform="translate(0.000000,850.000000) scale(0.100000,-0.100000)" fill="#000000" stroke="none">
<path d="M6625 6553 c-17 -25 -37 -57 -45 -70 -8 -12 -19 -23 -25 -23 -5 0 -43 23 -84 50 -40 28 -78 50 -83 50 -11 0 -191 -66 -216 -80 -10 -4 -64 -31 -122 -58 -108 -52 -180 -103 -180 -128 0 -16 70 -53 215 -114 361 -151 622 -293 713 -387 l23 -24 -38 -52 c-21 -28 -43 -58 -50 -65 -34 -35 -34 -49 -1 -86 21 -24 40 -36 58 -36 33 0 50 -17 50 -50 0 -42 -37 -56 -105 -41 -51 11 -60 19 -130 97 l-75 84 0 135 0 135 -124 0 -124 0 -33 39 c-38 42 -44 43 -159 19 -119 -24 -215 -62 -250 -100 -25 -27 -27 -103 -5 -193 20 -84 20 -85 -20 -85 -19 0 -35 4 -35 10 0 5 -14 25 -30 44 -30 33 -147 90 -312 151 -41 15 -64 30 -80 55 -13 18 -36 38 -53 43 -75 22 -98 25 -124 16 -28 -10 -49 -7 -166 26 -33 10 -76 21 -95 27 -234 64 -490 93 -635 73 -123 -18 -166 -30 -250 -70 -165 -80 -304 -222 -388 -396 -20 -43 -25 -47 -67 -53 -73 -10 -791 -28 -847 -22 -141 16 -321 83 -537 199 -38 21 -52 24 -68 16 -15 -8 -24 -7 -40 8 -20 17 -108 146 -108 157 0 3 11 6 24 6 19 0 28 11 50 59 30 67 47 201 27 224 -11 14 -83 26 -291 47 -58 6 -163 17 -235 26 -71 8 -173 19 -225 25 -52 5 -129 14 -170 20 -41 5 -118 14 -170 19 -52 5 -116 12 -142 16 -42 6 -49 4 -71 -20 -21 -23 -32 -26 -88 -26 -35 0 -103 5 -152 11 -48 6 -92 9 -97 7 -5 -2 19 -50 54 -108 36 -57 63 -107 60 -111 -2 -3 -21 -9 -42 -13 -51 -8 -139 -44 -179 -73 -25 -18 -45 -23 -92 -23 l-61 0 0 -51 c0 -41 7 -63 40 -118 44 -74 45 -75 220 -151 52 -23 115 -51 140 -62 25 -12 74 -34 110 -50 172 -76 173 -77 148 -110 -15 -19 -81 -30 -346 -54 -186 -17 -192 -19 -192 -40 0 -14 17 -35 50 -60 48 -36 50 -40 50 -86 0 -46 1 -48 29 -48 23 0 36 10 65 50 l36 50 72 0 72 0 -45 -37 c-24 -21 -69 -61 -99 -88 -96 -89 -107 -95 -170 -95 -54 0 -59 -2 -68 -27 -6 -16 -47 -113 -91 -218 -43 -104 -78 -191 -76 -193 2 -3 26 2 54 9 49 12 50 14 83 85 31 69 35 73 65 74 35 0 99 48 343 260 58 51 150 129 230 195 26 22 79 66 116 98 65 55 71 58 114 54 46 -4 250 -44 563 -111 38 -8 82 -25 100 -39 68 -52 216 -110 452 -176 158 -45 215 -64 215 -73 0 -4 -24 -25 -53 -47 -30 -22 -60 -46 -68 -53 -23 -23 -76 -58 -80 -53 -3 2 -54 13 -114 25 -61 11 -138 28 -173 36 -35 9 -65 14 -68 11 -3 -2 8 -26 24 -53 15 -27 48 -86 71 -130 36 -67 51 -86 85 -103 22 -12 61 -35 86 -50 39 -24 181 -109 306 -183 107 -62 124 -74 121 -80 -2 -8 -169 -128 -177 -128 -3 0 -39 33 -80 73 -65 64 -219 187 -234 187 -3 0 -31 15 -63 34 -278 163 -674 204 -1002 105 -152 -47 -330 -140 -436 -229 -39 -33 -185 -178 -210 -210 -82 -103 -184 -293 -218 -405 -85 -285 -89 -502 -14 -765 119 -415 434 -743 847 -883 322 -109 674 -83 991 72 131 65 216 127 340 251 183 182 283 359 348 615 11 44 21 93 23 109 3 27 9 30 133 72 72 24 135 43 141 44 6 0 17 -15 24 -32 6 -18 19 -51 27 -73 9 -22 19 -49 23 -60 4 -11 13 -33 19 -49 14 -33 12 -36 -49 -61 -61 -26 -72 -36 -148 -144 -37 -51 -80 -111 -95 -132 l-28 -39 1565 0 1565 0 5 53 c3 28 10 171 16 317 16 406 36 533 106 673 14 27 27 47 29 45 2 -2 -7 -39 -20 -81 -47 -145 -59 -224 -59 -377 -1 -262 66 -485 211 -702 62 -93 218 -249 314 -315 460 -316 1060 -289 1491 66 208 172 348 400 411 670 32 136 36 385 8 516 -51 242 -155 438 -325 613 -119 122 -257 219 -388 272 -32 13 -58 27 -58 32 0 5 20 23 45 40 25 18 45 35 45 38 0 15 -220 97 -340 126 -118 29 -313 13 -433 -35 -48 -19 -52 -12 -11 19 21 16 42 30 46 30 4 0 24 12 45 26 54 37 224 117 313 148 67 23 184 52 340 86 102 22 146 40 180 75 30 31 32 37 26 76 -13 81 -118 253 -261 428 -245 301 -307 372 -447 511 -111 110 -191 181 -297 263 -33 25 -37 34 -42 90 -9 94 -43 169 -106 237 -30 33 -60 60 -67 60 -6 0 -25 -21 -41 -47z m685 -1202 c117 -27 209 -41 261 -41 118 0 259 -152 259 -278 0 -75 -18 -86 -146 -90 -122 -4 -176 10 -251 66 -106 79 -233 258 -233 327 0 41 -1 41 110 16z m-4616 -511 c36 -12 66 -23 66 -25 0 -5 -185 -95 -194 -95 -3 0 -41 -16 -83 -36 -110 -52 -233 -104 -233 -99 0 4 166 130 220 167 14 10 52 38 85 62 33 25 63 45 66 45 4 1 37 -8 73 -19z m3331 -34 c169 -33 168 -50 -15 -162 -74 -46 -153 -92 -175 -104 -22 -11 -89 -47 -150 -80 -139 -75 -321 -153 -405 -175 -85 -22 -171 -15 -275 22 -61 22 -81 34 -83 50 -4 27 2 31 173 111 83 38 211 99 285 135 424 205 451 216 515 217 33 0 92 -6 130 -14z m-2994 -265 c30 -35 79 -96 109 -135 l55 -71 3 -102 c3 -69 0 -103 -7 -103 -6 0 -93 34 -193 76 -101 42 -219 91 -263 109 -44 18 -114 47 -155 64 -41 18 -117 48 -167 69 -51 20 -93 41 -93 45 0 4 24 19 53 31 28 13 108 50 177 83 69 33 159 75 200 93 41 19 79 37 84 41 9 8 100 -84 197 -200z m397 133 l112 -38 0 -73 c0 -40 -3 -73 -7 -73 -5 0 -36 25 -70 55 l-62 56 -68 -55 c-37 -31 -70 -56 -73 -56 -6 0 -90 130 -90 139 0 4 20 28 45 53 51 53 30 54 213 -8z m744 -445 c-110 -72 -169 -207 -142 -321 24 -100 73 -172 152 -221 44 -27 144 -49 189 -42 24 4 39 3 39 -3 0 -15 -101 -26 -157 -17 -200 30 -329 241 -262 429 28 81 91 155 161 190 78 39 88 31 20 -15z m568 -84 c47 -14 117 -37 155 -50 39 -13 151 -49 250 -80 99 -31 241 -77 315 -101 74 -24 141 -44 148 -44 7 0 10 -4 7 -10 -4 -6 -98 -10 -248 -10 l-242 0 -105 60 c-58 33 -112 65 -120 70 -8 6 -22 13 -30 17 -8 4 -48 26 -88 50 -41 24 -75 43 -77 43 -2 0 -41 21 -87 48 -46 26 -95 53 -110 61 -55 28 -26 28 60 1 48 -15 125 -40 172 -55z m-3424 -60 c20 -48 44 -139 53 -202 7 -48 6 -53 -11 -53 -13 0 -18 -7 -18 -25 0 -19 -8 -28 -27 -36 -93 -35 -156 -76 -215 -139 -35 -37 -71 -79 -81 -93 l-17 -26 -58 31 c-63 35 -199 124 -221 146 -18 17 -6 45 53 121 105 134 251 237 411 290 92 30 113 28 131 -14z m382 11 c108 -37 202 -90 286 -163 42 -35 76 -68 76 -71 0 -4 -11 -14 -23 -23 -19 -14 -55 -17 -207 -19 -102 -2 -196 0 -210 2 -14 3 -44 6 -67 7 -42 1 -42 1 -37 34 11 68 56 225 71 249 7 13 37 9 111 -16z m5405 -43 c22 -26 80 -255 66 -266 -2 -3 -23 -7 -46 -11 -37 -5 -42 -4 -49 16 -4 13 -17 46 -29 73 -51 113 -65 148 -65 161 0 7 21 20 48 28 61 19 56 19 75 -1z m367 -19 c112 -33 267 -131 351 -221 61 -65 149 -193 149 -216 0 -6 -79 -65 -125 -94 -16 -10 -80 -44 -117 -61 -3 -2 -17 18 -29 44 -31 60 -125 163 -191 207 -29 19 -83 45 -120 58 -59 20 -68 26 -68 47 0 37 80 252 93 252 2 0 27 -7 57 -16z m-609 -191 c25 -61 49 -118 52 -127 7 -19 -88 -90 -106 -79 -7 4 -39 27 -71 52 l-59 45 -48 -55 c-27 -30 -49 -57 -49 -61 0 -17 -28 -6 -54 21 -26 27 -27 30 -12 57 41 78 249 269 285 262 9 -2 35 -50 62 -115z m-3886 56 c30 -23 55 -46 55 -50 0 -5 -60 -9 -132 -9 -73 0 -143 -3 -155 -6 -13 -4 -23 -2 -23 3 0 8 172 99 192 102 4 1 32 -18 63 -40z m145 -127 c0 -5 -13 -21 -29 -36 -16 -15 -46 -52 -67 -81 -36 -50 -43 -55 -94 -65 -30 -5 -77 -15 -103 -20 -77 -16 -117 -13 -117 8 0 10 -11 51 -25 92 -40 121 -60 110 205 110 127 0 230 -4 230 -8z m-1282 -75 c-58 -40 -86 -54 -110 -53 -26 1 -34 6 -36 22 -2 16 -8 20 -23 17 -16 -5 -19 0 -19 31 l0 36 132 0 132 0 -76 -53z m2774 5 c-54 -68 -51 -172 6 -235 44 -49 128 -69 188 -47 38 15 42 5 5 -14 -70 -37 -186 -10 -231 54 -60 84 -54 180 15 250 48 49 58 44 17 -8z m-3681 -298 l35 -6 -4 -89 c-3 -49 1 -117 8 -151 12 -65 67 -185 94 -207 25 -21 19 -35 -36 -87 -117 -109 -194 -152 -241 -135 -33 13 -86 85 -131 176 -51 104 -51 109 -16 126 22 10 27 18 20 28 -7 12 -13 13 -35 3 -23 -11 -26 -10 -36 16 -16 40 -29 137 -29 217 0 77 15 110 53 119 27 6 268 -2 318 -10z m2016 -79 c13 -33 22 -64 19 -70 -2 -5 -25 -16 -52 -24 -27 -8 -80 -25 -119 -37 -38 -13 -70 -22 -70 -21 0 1 1 43 3 93 l3 90 82 16 c45 9 88 15 96 14 8 0 25 -28 38 -61z m3592 51 c14 -9 -7 -64 -42 -109 l-30 -38 16 -62 c9 -34 18 -75 22 -91 6 -31 -3 -30 135 -10 35 6 35 5 63 -58 15 -34 45 -86 66 -114 21 -28 36 -56 32 -61 -24 -36 -205 -147 -226 -139 -18 7 -74 93 -119 183 -64 129 -85 255 -77 471 1 13 10 27 24 32 22 10 118 7 136 -4z m1479 -72 l32 -5 0 -82 c0 -118 -30 -248 -81 -350 -32 -65 -104 -169 -143 -206 l-35 -34 -48 31 c-26 17 -74 58 -107 90 l-58 60 50 64 c93 118 132 224 132 360 l0 77 73 3 c72 4 123 1 185 -8z m-5748 -74 c0 -61 -12 -123 -37 -196 -14 -39 -18 -42 -86 -64 -40 -13 -97 -31 -127 -40 -166 -54 -169 -54 -189 -36 -11 10 -18 32 -19 56 -2 39 4 45 36 41 10 -2 11 2 2 19 -13 25 -6 40 20 40 16 0 18 5 14 30 -5 25 -3 31 16 38 16 6 19 11 12 16 -18 11 -14 44 5 55 14 8 15 11 4 25 -8 9 -12 18 -10 20 2 1 51 11 109 20 58 10 121 21 140 26 19 4 52 8 73 9 l37 1 0 -60z m-100 -331 c0 -12 -56 -97 -94 -143 l-24 -28 -43 26 c-60 36 -103 72 -93 78 5 3 56 19 114 37 58 18 110 34 115 36 19 6 25 5 25 -6z m-849 -99 c63 -18 98 -20 241 -19 93 1 170 0 174 -3 6 -7 74 -207 74 -219 0 -10 -82 -49 -102 -49 -8 0 -18 -4 -24 -8 -20 -18 -154 -36 -254 -35 -169 2 -349 54 -342 99 6 38 43 147 74 214 l30 69 28 -14 c15 -8 61 -24 101 -35z m5637 -64 c124 -64 295 -76 423 -30 39 14 75 22 79 17 10 -11 55 -145 70 -207 13 -56 12 -57 -60 -80 -66 -20 -137 -34 -207 -41 l-63 -7 0 36 c0 29 -4 36 -20 36 -16 0 -20 -7 -20 -30 0 -27 -3 -30 -32 -30 -32 0 -65 7 -153 32 -63 17 -155 60 -155 72 0 32 92 246 106 246 3 0 17 -6 32 -14z"/>
</g>
</svg>
