<?xml version="1.0" standalone="no"?>
<!DOCTYPE svg PUBLIC "-//W3C//DTD SVG 20010904//EN" "http://www.w3.org/TR/2001/REC-SVG-20010904/DTD/svg10.dtd">
<svg xmlns="http://www.w3.org/2000/svg" version="1.0" width="920.000000pt" height="920.000000pt" viewBox="0 0 920.000000 920.000000" preserveAspectRatio="xMidYMid meet">
<metadata>
Created by potrace 1.16, written by Peter Selinger 2001-2019
<meta name="Producer" content="Online-Convert"/></metadata>
<g transform="translate(0.000000,920.000000) scale(0.100000,-0.100000)" fill="#000000" stroke="none">
<path d="M3690 8464 c-850 -61 -1620 -449 -2175 -1096 -351 -410 -591 -909 -694 -1449 -47 -247 -64 -601 -41 -854 82 -887 531 -1689 1245 -2225 416 -312 893 -509 1430 -591 192 -30 552 -37 755 -15 391 42 760 151 1101 325 l134 68 870 -865 c906 -900 942 -933 1073 -982 250 -94 520 -46 729 129 155 130 252 276 294 441 29 114 23 269 -14 385 -55 168 -26 135 -974 1082 -480 480 -873 875 -873 877 0 2 20 39 45 81 240 406 380 866 419 1380 l6 71 -168 1 c-172 0 -278 14 -419 53 -40 11 -74 20 -77 20 -2 0 -6 -44 -10 -97 -54 -752 -409 -1402 -1004 -1841 -233 -172 -491 -298 -779 -380 -245 -71 -368 -86 -673 -86 -233 -1 -280 2 -393 22 -528 95 -971 324 -1337 691 -370 371 -598 812 -691 1336 -27 154 -37 471 -20 641 58 562 300 1077 695 1478 469 475 1094 737 1761 736 462 -1 934 -143 1329 -400 60 -39 110 -70 111 -68 2 2 17 39 34 83 52 136 172 329 277 445 l36 39 -99 65 c-395 258 -826 417 -1308 481 -116 15 -481 27 -595 19z"/>
<path d="M6495 8070 c-38 -11 -101 -32 -140 -48 l-70 -29 -6 -104 c-15 -244 -46 -267 -281 -208 -42 10 -85 19 -97 19 -13 0 -43 -31 -95 -100 -120 -160 -117 -144 -48 -254 67 -107 91 -174 74 -210 -17 -38 -70 -72 -177 -115 -60 -24 -102 -47 -106 -58 -9 -22 -11 -250 -3 -291 6 -28 14 -34 99 -67 103 -40 170 -83 187 -120 17 -37 -3 -93 -74 -208 l-59 -98 32 -52 c36 -58 80 -118 128 -173 26 -29 37 -35 59 -31 15 3 73 15 130 27 119 26 164 22 189 -17 23 -35 43 -134 43 -220 0 -48 5 -76 14 -86 17 -16 212 -83 271 -92 39 -6 41 -5 77 42 54 71 151 161 182 169 14 3 39 1 55 -6 31 -12 131 -110 178 -172 17 -23 36 -37 50 -38 25 0 191 51 259 80 l44 19 0 63 c0 86 17 193 35 228 24 46 72 56 177 36 47 -9 106 -22 131 -30 l46 -14 55 67 c55 67 136 188 136 202 0 4 -17 34 -39 66 -52 79 -88 152 -96 196 -7 35 -4 41 33 76 28 27 72 51 143 79 65 25 106 47 110 59 11 26 11 277 0 305 -6 16 -25 29 -62 42 -80 28 -181 81 -204 106 -39 43 -18 116 77 268 l40 63 -33 55 c-19 31 -62 91 -96 134 l-63 78 -92 -23 c-178 -44 -228 -42 -260 13 -21 35 -38 136 -38 225 l0 67 -57 26 c-65 28 -215 74 -245 74 -11 0 -31 -15 -46 -32 -67 -82 -157 -168 -187 -178 -22 -7 -41 -7 -59 0 -33 12 -110 83 -167 155 -49 62 -52 62 -154 35z m571 -594 c166 -53 328 -194 404 -350 56 -114 74 -191 74 -316 0 -126 -18 -202 -76 -320 -33 -68 -59 -102 -127 -171 -71 -71 -102 -94 -181 -133 -209 -103 -417 -103 -629 0 -79 38 -108 60 -175 128 -90 91 -136 161 -171 263 -138 399 98 824 510 919 96 22 272 13 371 -20z"/>
<path d="M3385 7305 c-111 -29 -255 -80 -316 -110 l-46 -24 -6 -138 c-12 -231 -45 -341 -115 -370 -54 -22 -169 -12 -337 31 -77 20 -143 36 -146 36 -24 0 -299 -376 -299 -408 0 -6 30 -57 66 -113 125 -193 165 -309 130 -376 -28 -55 -133 -112 -381 -210 -50 -19 -50 -20 -57 -74 -8 -72 -9 -317 -2 -400 l7 -67 111 -42 c156 -59 259 -115 302 -162 35 -39 36 -43 31 -97 -5 -65 -54 -169 -142 -306 -31 -48 -59 -93 -61 -100 -11 -26 163 -281 263 -386 l35 -37 46 15 c123 37 273 66 344 67 63 1 81 -3 105 -20 64 -48 90 -141 100 -361 l6 -142 76 -32 c42 -17 101 -40 131 -51 60 -21 282 -80 285 -76 0 2 40 51 87 109 145 178 239 248 314 235 55 -11 151 -93 257 -220 55 -67 100 -122 101 -123 4 -5 206 50 287 78 107 36 199 76 199 86 1 52 23 301 30 342 26 141 83 189 214 176 39 -3 138 -23 219 -44 l148 -38 76 91 c76 91 146 190 197 278 l28 48 -58 87 c-116 177 -166 294 -156 365 10 66 118 136 335 218 58 21 104 45 111 56 12 21 16 442 4 484 -6 22 -25 33 -120 69 -292 113 -355 171 -322 297 18 69 39 111 131 256 l74 118 -50 82 c-57 95 -146 214 -210 283 l-43 47 -142 -37 c-175 -45 -295 -55 -346 -28 -68 36 -95 124 -110 352 -7 104 -14 157 -22 163 -54 35 -406 148 -460 148 -9 0 -55 -47 -101 -103 -131 -159 -227 -237 -292 -237 -67 0 -168 82 -305 249 -50 62 -81 91 -95 91 -11 -1 -60 -12 -110 -25z m780 -909 c724 -188 1045 -1034 630 -1661 -135 -203 -372 -373 -615 -441 -128 -35 -351 -44 -483 -20 -437 82 -778 416 -868 851 -23 110 -25 311 -5 417 64 335 280 620 586 775 81 41 228 89 312 102 113 18 330 6 443 -23z"/>
</g>
</svg>
