<?xml version="1.0" standalone="no"?>
<!DOCTYPE svg PUBLIC "-//W3C//DTD SVG 20010904//EN" "http://www.w3.org/TR/2001/REC-SVG-20010904/DTD/svg10.dtd">
<svg xmlns="http://www.w3.org/2000/svg" version="1.0" width="987.000000pt" height="808.000000pt" viewBox="0 0 987.000000 808.000000" preserveAspectRatio="xMidYMid meet">
<metadata>
Created by potrace 1.16, written by Peter Selinger 2001-2019
<meta name="Producer" content="Online-Convert"/></metadata>
<g transform="translate(0.000000,808.000000) scale(0.100000,-0.100000)" fill="#000000" stroke="none">
<path d="M9075 6818 c-32 -25 -55 -74 -55 -117 0 -40 -26 -55 -115 -70 -166 -27 -566 -53 -940 -61 -277 -6 -592 -21 -1085 -54 -842 -55 -878 -56 -896 -30 -26 38 -33 42 -89 49 -115 14 -164 -2 -397 -131 -102 -58 -201 -110 -220 -118 -18 -7 -73 -17 -123 -20 -160 -12 -288 -26 -375 -42 -131 -24 -317 -88 -452 -157 -221 -112 -364 -218 -687 -510 -179 -161 -226 -194 -290 -202 -194 -25 -329 -109 -430 -264 -97 -151 -114 -257 -137 -873 l-7 -178 -627 0 -627 0 -7 -270 c-5 -186 -11 -284 -21 -318 -20 -65 -67 -135 -118 -172 -87 -64 -82 -63 -740 -68 l-597 -4 0 -334 0 -334 1294 0 1293 0 5 -38 c3 -20 2 -57 -1 -82 -7 -55 -26 -61 -88 -30 l-44 22 -47 -25 -47 -25 -48 25 -47 25 -47 -24 c-49 -26 -66 -26 -94 -1 -23 20 -73 19 -103 0 -27 -18 -71 -22 -80 -8 -3 5 -19 14 -35 19 -24 8 -37 7 -67 -9 -41 -20 -79 -25 -88 -10 -3 5 -19 14 -35 19 -23 8 -38 6 -76 -13 l-48 -23 -48 25 c-44 23 -49 24 -76 9 -15 -8 -38 -20 -50 -27 -18 -9 -26 -8 -50 8 -46 32 -60 33 -107 8 l-46 -24 -46 24 c-48 26 -66 24 -119 -11 -25 -16 -27 -16 -57 6 -40 30 -76 30 -116 0 l-32 -23 -56 28 -57 29 -51 -19 c-28 -10 -79 -22 -113 -25 -39 -5 -84 -19 -122 -39 -33 -17 -72 -31 -86 -31 -37 0 -62 -16 -69 -44 -9 -35 -31 -54 -76 -66 -45 -12 -65 -37 -74 -92 -5 -27 -17 -45 -42 -65 -44 -33 -57 -64 -43 -99 8 -23 5 -34 -26 -78 -38 -56 -42 -72 -21 -101 27 -39 28 -63 5 -94 l-22 -30 20 -38 c11 -21 30 -72 43 -113 18 -55 34 -84 62 -112 25 -24 38 -46 38 -63 0 -30 49 -85 74 -85 9 0 38 -23 64 -50 42 -45 54 -52 111 -62 47 -9 67 -18 78 -35 14 -21 22 -23 103 -23 66 0 91 -4 100 -15 18 -21 58 -19 107 7 l42 22 30 -22 c37 -27 77 -28 116 -2 38 25 57 25 80 0 24 -26 69 -26 121 2 l41 21 31 -21 c39 -28 75 -28 113 0 l30 22 42 -22 c52 -28 98 -28 122 -2 23 25 42 25 80 0 39 -26 79 -25 116 2 l30 22 42 -22 c51 -27 84 -28 117 -2 32 25 51 25 83 0 33 -26 69 -25 117 2 l39 23 30 -23 c37 -27 88 -28 121 -2 32 25 52 25 75 0 11 -13 31 -20 52 -20 20 0 46 9 60 20 32 25 54 25 86 0 32 -26 77 -26 110 0 32 25 48 25 80 0 33 -26 81 -25 118 2 l30 23 39 -23 c48 -27 84 -28 117 -2 32 25 54 25 86 0 33 -26 62 -25 114 2 l42 22 30 -22 c37 -27 77 -28 116 -2 38 25 57 25 80 0 23 -26 71 -26 110 0 37 25 53 25 85 0 33 -26 82 -26 105 0 21 24 45 26 45 5 0 -23 57 -19 93 7 l30 22 38 -22 c47 -27 83 -28 116 -2 32 25 54 25 86 0 32 -26 82 -26 114 0 32 25 44 25 76 0 33 -26 77 -25 122 1 l36 22 31 -23 c33 -24 76 -24 136 1 29 12 37 12 63 -4 41 -23 84 -22 119 4 l29 22 36 -22 c45 -26 89 -27 122 -1 32 25 44 25 76 0 14 -11 39 -20 57 -20 18 0 43 9 57 20 32 25 54 25 86 0 33 -26 69 -25 116 2 l38 22 30 -22 c39 -28 82 -28 128 -1 l36 22 29 -22 c33 -24 76 -27 105 -7 11 7 55 16 97 19 49 3 98 14 135 30 32 14 70 28 85 31 15 4 35 18 45 32 33 48 61 73 90 80 39 9 61 31 69 68 4 17 26 53 49 81 33 39 43 60 47 98 3 27 17 64 32 87 30 46 32 71 10 106 -14 21 -15 31 -5 63 18 63 14 107 -14 135 -20 20 -25 35 -25 75 0 44 -5 56 -44 104 -24 30 -47 68 -50 84 -8 36 -28 56 -77 76 -20 8 -45 27 -55 41 -45 63 -49 67 -102 75 -30 5 -67 19 -85 32 -27 20 -44 24 -102 24 -39 0 -85 7 -102 14 -35 14 -68 11 -119 -10 -28 -11 -34 -10 -59 9 -34 27 -71 28 -110 2 -37 -25 -53 -25 -85 0 -32 25 -67 25 -105 0 -38 -25 -56 -25 -88 0 -33 26 -71 25 -108 -2 l-30 -23 -39 23 c-49 28 -71 28 -119 0 l-38 -22 -35 22 c-44 28 -69 28 -117 0 l-38 -22 -35 22 c-44 28 -69 28 -117 0 l-38 -22 -35 22 c-41 26 -76 28 -104 7 -25 -19 -64 -19 -100 0 -38 20 -52 19 -98 -6 -74 -39 -106 -10 -106 99 l0 62 560 0 560 0 0 670 0 670 190 0 190 0 0 38 c0 20 -9 54 -20 75 -27 51 -25 62 14 85 70 41 71 45 74 353 2 179 -1 292 -8 318 -7 28 -24 52 -55 78 -25 20 -45 42 -45 47 0 5 9 29 21 53 16 32 19 53 14 79 l-6 36 -277 -4 c-326 -4 -303 -10 -432 121 -118 120 -243 181 -369 181 -62 0 -44 12 74 50 203 64 404 102 610 115 55 3 690 10 1410 15 1141 8 1347 12 1600 29 265 19 315 23 382 37 29 6 27 25 63 -671 32 -623 95 -1846 106 -2052 5 -86 4 -126 -4 -136 -7 -8 -44 -27 -83 -42 l-71 -29 -107 28 c-58 16 -233 62 -389 102 -156 40 -291 79 -299 86 -9 7 -47 60 -86 118 -45 68 -104 139 -167 200 -75 73 -101 105 -110 137 -10 32 -20 44 -42 52 -26 9 -30 8 -38 -13 -10 -27 8 -168 75 -572 110 -665 142 -765 302 -935 80 -84 145 -119 222 -119 175 1 397 118 506 268 53 73 115 126 197 170 70 37 69 38 110 -36 22 -42 71 -66 115 -57 41 7 109 67 166 145 22 30 120 136 218 235 104 105 180 191 184 206 4 16 -2 55 -16 98 -19 65 -21 86 -15 194 14 242 37 469 61 599 31 166 46 307 90 873 69 865 60 787 89 812 14 12 26 30 26 41 0 34 -149 907 -161 942 -20 57 -78 138 -136 188 -30 26 -97 103 -150 172 -53 69 -119 149 -147 178 -45 46 -55 52 -92 52 -27 0 -51 -7 -69 -22z m189 -159 c35 -27 59 -76 52 -104 -9 -35 -72 -85 -106 -85 -34 0 -97 50 -106 85 -12 48 53 125 106 125 15 0 39 -9 54 -21z m-250 -180 c7 -7 -42 -272 -65 -344 -25 -82 -73 -181 -90 -187 -7 -2 -53 8 -103 23 -395 116 -356 110 -831 134 -817 43 -1781 114 -1830 134 -19 8 -19 9 5 15 31 7 548 48 1025 81 425 30 617 47 895 80 183 22 291 31 760 64 121 9 226 9 234 0z m-4185 -544 c38 -19 78 -68 86 -104 16 -73 -63 -166 -140 -166 -83 0 -166 92 -150 166 8 35 59 97 89 109 33 14 84 11 115 -5z m4314 -29 c18 -7 47 -30 65 -50 61 -70 35 -167 -60 -214 -40 -20 -52 -22 -85 -13 -77 21 -122 99 -102 175 12 45 66 102 101 109 41 8 48 7 81 -7z m467 -633 c0 -9 -13 -193 -30 -407 -32 -426 -49 -718 -80 -1361 -11 -231 -25 -447 -30 -480 -5 -33 -10 -61 -10 -63 0 -23 -156 159 -176 205 -13 30 -5 92 90 720 58 378 128 842 156 1030 28 189 53 350 56 358 8 20 24 19 24 -2z m-5851 -97 c8 -9 10 -221 9 -778 l-3 -764 -174 63 c-96 35 -178 69 -183 75 -4 7 -8 329 -8 716 l0 702 174 0 c134 0 176 -3 185 -14z m1051 -17 c138 -66 279 -266 344 -492 56 -192 59 -239 63 -936 l5 -644 -77 64 c-310 258 -472 326 -972 409 -104 17 -198 33 -210 36 l-23 4 0 796 0 796 408 -4 407 -3 55 -26z m691 -239 c28 -16 23 -35 -17 -72 -64 -59 -64 -58 -64 -373 0 -320 3 -340 64 -376 69 -41 51 -79 -39 -79 l-52 0 -6 178 c-8 255 -53 505 -121 671 l-25 61 120 0 c66 0 129 -5 140 -10z m-3060 -1080 c23 -13 25 -36 3 -44 -9 -3 -154 -6 -324 -6 -252 0 -310 3 -319 14 -10 11 -7 17 11 30 19 14 64 16 316 16 183 0 301 -4 313 -10z m18 -164 c26 -32 -10 -36 -323 -36 -231 -1 -312 2 -323 12 -13 10 -13 14 3 25 27 19 627 19 643 -1z m-16 -150 c38 -29 -5 -35 -305 -42 -258 -6 -298 -5 -317 8 l-22 16 23 16 c19 14 62 16 313 16 226 -1 294 -4 308 -14z m-8 -148 c14 -6 25 -15 25 -19 0 -24 -55 -29 -327 -29 -231 0 -293 3 -308 14 -16 12 -17 16 -6 30 12 14 49 16 302 16 197 0 296 -4 314 -12z m16 -155 c10 -10 9 -16 -1 -28 -19 -22 -631 -23 -650 0 -10 12 -10 18 0 30 11 14 54 15 326 13 228 -2 316 -6 325 -15z m6828 -400 c28 -37 52 -76 55 -86 5 -22 -125 -200 -138 -187 -5 5 -3 72 3 153 6 80 11 154 11 166 0 36 18 24 69 -46z m-3139 -603 c338 -98 489 -487 302 -776 -76 -116 -196 -206 -323 -239 -194 -52 -441 43 -555 212 -21 32 -43 61 -49 65 -5 4 -970 8 -2143 8 -2019 0 -2133 -1 -2147 -17 -7 -10 -32 -43 -54 -73 -85 -114 -230 -194 -377 -207 -371 -31 -666 345 -541 690 78 214 279 357 501 357 154 0 238 -38 381 -172 l95 -88 2136 0 c1592 0 2141 3 2157 12 12 6 60 47 107 91 161 152 315 193 510 137z"/>
<path d="M9156 6631 c-27 -30 -18 -99 16 -124 72 -54 161 59 95 121 -30 28 -87 29 -111 3z"/>
<path d="M4719 5905 c-79 -43 -83 -149 -7 -195 53 -32 94 -27 139 19 31 31 39 46 39 76 0 30 -8 45 -39 76 -43 43 -84 50 -132 24z"/>
<path d="M9053 5874 c-93 -46 -93 -162 -1 -210 57 -30 114 -6 150 63 l23 43 -20 37 c-21 39 -76 83 -104 83 -9 0 -31 -8 -48 -16z"/>
<path d="M657 2130 c-64 -16 -144 -59 -195 -105 -173 -156 -172 -449 3 -614 210 -199 552 -130 678 137 29 61 32 75 32 168 0 96 -2 103 -38 177 -48 97 -119 169 -206 211 -56 26 -79 31 -151 33 -47 1 -102 -2 -123 -7z m183 -260 c44 -22 84 -77 95 -127 14 -71 -32 -156 -108 -195 -112 -56 -256 35 -257 164 -1 136 145 222 270 158z"/>
<path d="M710 1869 c-21 -4 -49 -23 -72 -48 -35 -37 -38 -45 -38 -97 0 -73 25 -115 86 -145 102 -49 211 15 221 128 9 107 -88 187 -197 162z"/>
<path d="M5880 2122 c-131 -44 -216 -116 -272 -229 -31 -64 -33 -73 -33 -178 0 -105 2 -113 34 -179 129 -264 475 -321 683 -113 204 204 144 549 -118 678 -57 28 -79 33 -153 36 -63 2 -100 -2 -141 -15z m193 -238 c69 -35 107 -95 107 -169 0 -135 -148 -221 -272 -159 -51 26 -82 80 -86 150 -4 54 -1 70 22 107 44 77 152 110 229 71z"/>
<path d="M5960 1868 c-39 -11 -85 -49 -106 -90 -46 -88 23 -203 128 -215 92 -11 159 49 166 146 3 46 0 62 -20 90 -44 64 -100 87 -168 69z"/>
<path d="M580 4041 c-147 -6 -158 -8 -221 -37 -136 -65 -249 -223 -284 -396 -8 -44 -15 -130 -15 -198 l0 -120 567 0 c612 0 663 3 736 50 90 57 111 142 123 503 l7 207 -379 -2 c-208 -1 -449 -4 -534 -7z"/>
</g>
</svg>
